# xmcd
#
# Track frame offsets:
# 150
# 13592
# 31992
# 50030
# 67450
# 83930
# 100855
# 116652
# 134417
# 146355
# 165702
#
# Disc length: 2489 seconds
#
#
# Revision: 0
# Processed by: cddbd v1.5.1PL2 Copyright (c) Steve Scherf et al.
# Submitted via: FreeRIP 2.945 
#
DISCID=9d09b70b
DTITLE=Carolina - stolen moments
DYEAR=1900
DGENRE=Country
TTITLE0=Mr. Right
TTITLE1=She's the one you love
TTITLE2=When the crying is done
TTITLE3=All in the name of love
TTITLE4=Hearts apart
TTITLE5=Stolen moments
TTITLE6=Windy rain
TTITLE7=One day at a time
TTITLE8=The other side
TTITLE9=Jolene
TTITLE10=Bell of Freedom
EXTD=
EXTT0=
EXTT1=
EXTT2=
EXTT3=
EXTT4=
EXTT5=
EXTT6=
EXTT7=
EXTT8=
EXTT9=
EXTT10=
PLAYORDER=
